# xmcd
#
# Track frame offsets:
#	150
#	16130
#	32105
#	61817
#	93595
#	116232
#	133995
#	155517
#	176595
#	210300
#	228037
#	254235
#	279505
#	300805
#
# Disc length: 4436 seconds
#
# Revision: 0
# Processed by: cddbd v1.4PL0 Copyright (c) Steve Scherf et al.
# Submitted via: dBpowerAMP V4.0
#
DISCID=ba11520e
DTITLE=Rudy Rotta - Diabolic Live
DYEAR=1993
DGENRE=Blues
TTITLE0=Hold on
TTITLE1=Tell me baby
TTITLE2=Back track, I'm on the road again
TTITLE3=I Don't pay no money
TTITLE4=Can you dig it?
TTITLE5=Money, Money
TTITLE6=Caledonia
TTITLE7=Dust my broom
TTITLE8=The last time
TTITLE9=Penny pinching blues
TTITLE10=Ramblin' on my mind
TTITLE11=Baby watcha want me to do
TTITLE12=I got my mojo working
TTITLE13=Boogie in do
EXTD=
EXTT0=
EXTT1=
EXTT2=
EXTT3=
EXTT4=
EXTT5=
EXTT6=
EXTT7=
EXTT8=
EXTT9=
EXTT10=
EXTT11=
EXTT12=
EXTT13=
PLAYORDER=
